<?xml version="1.0" standalone="no"?><!DOCTYPE svg PUBLIC "-//W3C//DTD SVG 1.1//EN" "http://www.w3.org/Graphics/SVG/1.1/DTD/svg11.dtd"><svg t="1600426964164" class="icon" viewBox="0 0 1024 1024" version="1.1" xmlns="http://www.w3.org/2000/svg" p-id="4252" xmlns:xlink="http://www.w3.org/1999/xlink" width="16" height="16"><defs><style type="text/css"></style></defs><path d="M917.333333 503.466667c0-51.2-21.333333-98.133333-55.466666-115.2-46.933333-174.933333-183.466667-302.933333-349.866667-302.933334s-307.2 128-349.866667 302.933334c-34.133333 12.8-55.466667 59.733333-55.466666 115.2 0 51.2 21.333333 93.866667 46.933333 110.933333 38.4 179.2 174.933333 315.733333 341.333333 324.266667h25.6c25.6 0 46.933333-21.333333 46.933334-46.933334 0-25.6-21.333333-46.933333-46.933334-46.933333-25.6 0-46.933333 21.333333-46.933333 46.933333v4.266667c-72.533333-8.533333-140.8-51.2-192-106.666667-21.333333-29.866667-38.4-55.466667-46.933333-68.266666-12.8-21.333333-17.066667-42.666667-17.066667-59.733334 0-25.6 4.266667-59.733333 12.8-102.4 25.6-98.133333 89.6-183.466667 174.933333-230.4 34.133333 34.133333 93.866667 59.733333 170.666667 85.333334 51.2 12.8 115.2 25.6 170.666667 34.133333 38.4 59.733333 64 132.266667 64 209.066667 0 34.133333-8.533333 85.333333-29.866667 149.333333 51.2-76.8 81.066667-140.8 98.133333-200.533333 21.333333-17.066667 38.4-59.733333 38.4-102.4z m-68.266666-128z m-337.066667-230.4c145.066667 0 268.8 85.333333 328.533333 213.333333-64-115.2-183.466667-192-320-192h-4.266666-4.266667c-89.6 0-174.933333 34.133333-238.933333 89.6-4.266667 4.266667-8.533333 8.533333-17.066667 12.8l-8.533333 8.533333c-29.866667 29.866667-55.466667 64-72.533334 102.4 55.466667-140.8 183.466667-234.666667 337.066667-234.666666z" fill="#666666" p-id="4253"></path><path d="M358.4 550.4v38.4c0 21.333333 17.066667 38.4 38.4 38.4s38.4-17.066667 38.4-38.4v-38.4c0-21.333333-17.066667-38.4-38.4-38.4s-38.4 17.066667-38.4 38.4zM665.6 512c-21.333333 0-38.4 17.066667-38.4 38.4v38.4c0 21.333333 17.066667 38.4 38.4 38.4s38.4-17.066667 38.4-38.4v-38.4c0-21.333333-17.066667-38.4-38.4-38.4z" fill="#666666" p-id="4254"></path></svg>