<?xml version="1.0" standalone="no"?><!DOCTYPE svg PUBLIC "-//W3C//DTD SVG 1.1//EN" "http://www.w3.org/Graphics/SVG/1.1/DTD/svg11.dtd"><svg t="1600427302958" class="icon" viewBox="0 0 1024 1024" version="1.1" xmlns="http://www.w3.org/2000/svg" p-id="5096" xmlns:xlink="http://www.w3.org/1999/xlink" width="16" height="16"><defs><style type="text/css"></style></defs><path d="M138.496 56.832C163.328 17.92 216.064 29.184 254.976 25.088c196.864 2.816 393.984-2.816 590.592 2.304 89.344 4.608 81.408 117.76 105.984 180.48 30.464 119.04 104.448 281.344-10.24 376.832-79.36 72.448-194.304 32.768-260.352-36.608-44.8 46.08-97.792 97.024-167.936 87.552-64.768 4.608-108.8-48.128-152.832-86.528-40.96 28.416-78.592 69.376-131.328 73.472-129.024 19.968-243.456-136.448-187.904-253.44 39.168-102.144 60.416-209.664 97.536-312.32m44.8 22.272C155.648 185.344 127.488 291.328 87.04 393.472c-38.4 85.248 51.2 196.608 144.384 170.496 68.608-2.816 94.208-79.104 132.864-123.648 37.632 62.464 79.36 149.504 166.656 140.8 79.872-4.608 111.616-84.48 145.92-143.872 39.168 49.408 66.816 130.048 142.336 127.744 87.552 18.432 156.416-72.96 135.168-154.624-26.624-111.104-73.472-217.088-91.648-330.752-226.56 0.256-452.864 1.28-679.424-0.512z" fill="#595959" p-id="5097"></path><path d="M208.128 330.752c208.64-11.776 418.56-12.8 627.2 0.512-35.072 63.232-111.872 40.448-170.496 45.056-140.032-5.888-281.344 8.704-420.608-6.912-9.216-9.728-27.136-29.184-36.096-38.656zM102.4 665.088c12.8 0.256 38.4 0.512 51.2 0.768 0 87.04 0 174.336 0.256 261.376 244.224 3.328 488.704 6.912 732.672-1.792-2.304-90.88-3.328-182.016 0.512-272.896 13.056 6.144 38.912 18.176 51.712 24.064 8.704 98.816 10.24 199.936-13.312 296.96-267.52-0.256-535.04-2.56-802.304 1.28-39.168-98.56-15.872-206.592-20.736-309.76z" fill="#595959" p-id="5098"></path></svg>