<?xml version="1.0" standalone="no"?><!DOCTYPE svg PUBLIC "-//W3C//DTD SVG 1.1//EN" "http://www.w3.org/Graphics/SVG/1.1/DTD/svg11.dtd"><svg t="1599049468056" class="icon" viewBox="0 0 1024 1024" version="1.1" xmlns="http://www.w3.org/2000/svg" p-id="2083" xmlns:xlink="http://www.w3.org/1999/xlink" width="16" height="16"><defs><style type="text/css"></style></defs><path d="M323.46919964 508.98454753l252.002836-251.37439952L826.21800014 508.98454753v502.74880196H323.46919964z" fill="#d81e06" p-id="2084"></path><path d="M219.02313622 939.21183396h585.95372756v-326.34681542a36.44928857 36.44928857 0 0 1 36.57497527-36.2607563 36.44928857 36.44928857 0 0 1 36.63781937 36.2607563v362.60757321a36.44928857 36.44928857 0 0 1-36.63781937 36.26075774H182.38531686a36.44928857 36.44928857 0 0 1-36.57497528-36.26075774v-362.60757321a36.44928857 36.44928857 0 0 1 36.57497528-36.2607563 36.44928857 36.44928857 0 0 1 36.63781936 36.2607563v326.34681542zM512 93.8397251l-440.15657477 435.82036785a36.88919279 36.88919279 0 0 1-51.8459701 0 36.00938287 36.00938287 0 0 1 0-51.2803777l466.04813851-461.46055671a36.88919279 36.88919279 0 0 1 51.84597008 0l466.11098115 461.46055671a36.07222695 36.07222695 0 0 1 0 51.4060644 36.95203687 36.95203687 0 0 1-51.8459701 0L512 93.90256919v-0.06284409z" fill="#d81e06" p-id="2085"></path></svg>