<?xml version="1.0" standalone="no"?><!DOCTYPE svg PUBLIC "-//W3C//DTD SVG 1.1//EN" "http://www.w3.org/Graphics/SVG/1.1/DTD/svg11.dtd"><svg t="1600605189651" class="icon" viewBox="0 0 1024 1024" version="1.1" xmlns="http://www.w3.org/2000/svg" p-id="2359" xmlns:xlink="http://www.w3.org/1999/xlink" width="16" height="16"><defs><style type="text/css"></style></defs><path d="M512 7.68C233.984 7.68 7.68 233.984 7.68 512s226.304 504.32 504.32 504.32 504.32-226.304 504.32-504.32S790.016 7.68 512 7.68z m0 943.104c-242.176 0-438.784-197.12-438.784-438.784S269.824 73.216 512 73.216s438.784 197.12 438.784 438.784-196.608 438.784-438.784 438.784z" fill="#cdcdcd" p-id="2360"></path><path d="M785.408 326.144c-12.8-12.8-33.792-12.8-46.592 0l-302.592 302.592-151.552-152.064c-12.8-12.8-33.792-12.8-46.592 0s-12.8 33.792 0 46.592l175.104 175.104c1.536 1.536 3.072 3.072 5.12 4.096 5.632 3.584 11.776 5.632 17.92 5.632 8.704 0 16.896-3.072 23.552-9.728v-0.512l325.12-325.12c13.824-13.312 13.824-33.792 0.512-46.592z" fill="#cdcdcd" p-id="2361"></path></svg>